<?xml version="1.0" ?><!DOCTYPE svg  PUBLIC '-//W3C//DTD SVG 1.1//EN'  'http://www.w3.org/Graphics/SVG/1.1/DTD/svg11.dtd'><svg enable-background="new 0 0 550 550" id="Layer_1" version="1.1" viewBox="0 0 550 550" xml:space="preserve" xmlns="http://www.w3.org/2000/svg" xmlns:xlink="http://www.w3.org/1999/xlink"><g><g><circle cx="275" cy="275" fill="#2292C8" r="256"/><g><path d="M266.6,217.2c4.3,6.1,6.4,13.4,6.3,21.8c-0.1,8.7-2.4,15.7-6.8,20.9c-2.5,3-6.2,5.6-11,8      c7.3,2.7,12.7,7,16.4,12.8c3.6,5.8,5.4,12.8,5.3,21c-0.1,8.5-2.3,16-6.6,22.7c-2.7,4.4-6.2,8.1-10.2,11.1      c-4.6,3.4-10,5.8-16.2,7c-6.2,1.2-12.9,1.8-20.2,1.7l-64.3-0.7l1.5-142.8l69,0.7C247.2,202.1,259.4,207.3,266.6,217.2z M189,226      l-0.3,31.5l34.7,0.4c6.2,0.1,11.2-1.1,15.1-3.4c3.9-2.3,5.9-6.5,5.9-12.5c0.1-6.7-2.4-11.1-7.5-13.3c-4.4-1.5-10-2.3-16.8-2.4      L189,226z M188.4,281.1l-0.4,38.1l34.7,0.4c6.2,0.1,11-0.7,14.5-2.4c6.3-3,9.5-8.9,9.6-17.7c0.1-7.4-2.9-12.6-8.9-15.4      c-3.4-1.6-8.1-2.5-14.2-2.6L188.4,281.1z" fill="#FFFFFF"/><path d="M363.7,242.4c7.3,3.4,13.4,8.6,18.1,15.8c4.3,6.3,7,13.6,8.2,21.9c0.7,4.9,0.9,11.8,0.7,21l-76.9-0.8      c0.3,10.6,3.9,18.1,10.8,22.4c4.2,2.7,9.2,4.1,15.2,4.1c6.3,0.1,11.4-1.5,15.4-4.7c2.2-1.7,4.1-4.1,5.8-7.2l28.2,0.3      c-0.8,6.3-4.3,12.6-10.4,19c-9.6,10.2-22.9,15.1-39.9,15c-14.1-0.2-26.4-4.6-37.1-13.4c-10.6-8.8-15.9-22.9-15.6-42.4      c0.2-18.3,5.2-32.3,15-41.9c9.8-9.6,22.4-14.4,37.9-14.2C348.2,237.3,356.4,239,363.7,242.4z M322.2,265.8      c-3.9,4-6.5,9.4-7.5,16.3l47.6,0.5c-0.4-7.3-2.8-12.9-7.2-16.8c-4.4-3.8-9.8-5.8-16.3-5.9C331.7,259.9,326.1,261.8,322.2,265.8z      " fill="#FFFFFF"/><rect fill="#FFFFFF" height="17.8" transform="matrix(0.9999 1.084828e-02 -1.084828e-02 0.9999 2.3884 -3.6625)" width="61.2" x="308.2" y="209.4"/></g></g></g></svg>