<?xml version="1.0" ?><!DOCTYPE svg  PUBLIC '-//W3C//DTD SVG 1.1//EN'  'http://www.w3.org/Graphics/SVG/1.1/DTD/svg11.dtd'><svg enable-background="new 0 0 128 128" id="Слой_1" version="1.1" viewBox="0 0 128 128" xml:space="preserve" xmlns="http://www.w3.org/2000/svg" xmlns:xlink="http://www.w3.org/1999/xlink"><g><path d="M45.2,75.8c0,0.3,0,0.7,0,1c0.3,7,3.8,11.2,6.6,14.5c2.2,2.6,3.9,4.6,3.9,7.2v4.2c0,4.6,3.7,8.3,8.3,8.3   s8.3-3.7,8.3-8.3v-4.2c0-2.7,1.7-4.7,3.9-7.2c2.8-3.3,6.3-7.5,6.6-14.5c0-0.3,0-0.7,0-1C82.8,65.4,74.4,57,64,57   S45.2,65.4,45.2,75.8z M64,107c-2.4,0-4.3-1.9-4.3-4.3v-2.2h8.6v2.2C68.3,105.1,66.4,107,64,107z M78.8,75.8c0,0.3,0,0.5,0,0.8   c-0.2,5.7-3,8.9-5.7,12.1c-2,2.3-4,4.7-4.6,7.8h-9c-0.6-3.1-2.6-5.5-4.6-7.8c-2.7-3.2-5.4-6.5-5.7-12.1c0-0.3,0-0.5,0-0.8   C49.2,67.6,55.8,61,64,61S78.8,67.6,78.8,75.8z" fill="#3EBBC4"/><polygon fill="#3EBBC4" points="61.2,78.4 58.4,81.2 64,86.8 69.6,81.2 66.8,78.4 64,81.2  "/><path d="M17,63.8V126h94V63.8l8,8l7.8-7.8L111,48.2V12H92v17.2l-28-28L1.2,64L9,71.8L17,63.8z M107,60v62H21V60   h-0.2L64,16.8L107.2,60H107z M64,6.8l32,32V16h11v33.8L121.2,64l-2.2,2.2l-55-55l-55,55L6.8,64L64,6.8z" fill="#3EBBC4"/></g></svg>